# xmcd
#
# Track frame offsets:
#	150
#	17200
#	32790
#	69098
#	88152
#	113501
#	132544
#	146204
#	174383
#	196301
#	221939
#	244677
#
# Disc length: 3525 seconds
#
# Revision: 0
# Processed by: cddbd v1.5.2PL0 Copyright (c) Steve Scherf et al.
# Submitted via: audiograbber 1.83.01
#
DISCID=af0dc30c
DTITLE=David Bowie - Docklands Arena London 1990-03-26 Disc 2
DYEAR=1990
DGENRE=Rock
TTITLE0=Ziggy Stardust
TTITLE1=Sound And Vision
TTITLE2=Station To Station
TTITLE3=Alabama Song
TTITLE4=Young Americans
TTITLE5=Panic In Detroit
TTITLE6=Suffragette City
TTITLE7=Fame
TTITLE8=Heroes
TTITLE9=Jean Genie
TTITLE10=Pretty Pink Rose
TTITLE11=Modern Love
EXTD=100PCB Recording\n8th row\nSony mic > Sony Pro Walkman WM-D6
EXTT0=
EXTT1=
EXTT2=
EXTT3=
EXTT4=
EXTT5=
EXTT6=
EXTT7=
EXTT8=
EXTT9=
EXTT10=
EXTT11=
PLAYORDER=
